<mxfile host="app.diagrams.net" modified="2024-02-06T00:35:41.941Z" agent="Mozilla/5.0 (Windows NT 10.0; Win64; x64) AppleWebKit/537.36 (KHTML, like Gecko) Chrome/121.0.0.0 Safari/537.36" etag="_1bRZKlNJ7KFyf_pe2wP" version="23.1.1" type="github">
  <diagram id="a45cf8ec-cd66-6f27-3ac3-be6e809c9e4a" name="Page-1">
    <mxGraphModel dx="2074" dy="1098" grid="1" gridSize="10" guides="1" tooltips="1" connect="1" arrows="1" fold="1" page="1" pageScale="1" pageWidth="827" pageHeight="1169" background="none" math="0" shadow="0">
      <root>
        <mxCell id="0" />
        <mxCell id="1" parent="0" />
        <mxCell id="3" value="" style="rounded=1;whiteSpace=wrap;html=1;shadow=0;strokeColor=none;fillColor=#BAC8D3;gradientColor=none;fontSize=18;fontColor=#F08705;opacity=40;fontStyle=0;strokeWidth=3;" parent="1" vertex="1">
          <mxGeometry x="40" width="1600" height="960" as="geometry" />
        </mxCell>
        <mxCell id="vccDXUJ2TS7fj880tAXQ-174" value="&lt;span style=&quot;line-height: 17.1818180084229px&quot;&gt;LAN&amp;nbsp;&lt;/span&gt;" style="rounded=1;whiteSpace=wrap;html=1;shadow=0;strokeColor=none;fillColor=#BAC8D3;gradientColor=none;fontSize=18;fontColor=#AE4132;verticalAlign=top;fontStyle=0;opacity=70;strokeWidth=3;" vertex="1" parent="1">
          <mxGeometry x="890" y="60" width="710" height="830" as="geometry" />
        </mxCell>
        <mxCell id="vccDXUJ2TS7fj880tAXQ-183" value="" style="rounded=1;whiteSpace=wrap;html=1;shadow=0;strokeColor=none;fillColor=#AFBDC7;gradientColor=none;fontSize=18;fontColor=#AE4132;verticalAlign=top;fontStyle=0;opacity=70;strokeWidth=3;" vertex="1" parent="1">
          <mxGeometry x="890" y="420" width="710" height="470" as="geometry" />
        </mxCell>
        <mxCell id="5" value="&lt;span style=&quot;line-height: 17.1818180084229px&quot;&gt;WiFi&lt;/span&gt;" style="rounded=1;whiteSpace=wrap;html=1;shadow=0;strokeColor=none;fillColor=#BAC8D3;gradientColor=none;fontSize=18;fontColor=#AE4132;verticalAlign=top;fontStyle=0;opacity=70;strokeWidth=3;" parent="1" vertex="1">
          <mxGeometry x="80" y="60" width="720" height="830" as="geometry" />
        </mxCell>
        <mxCell id="vccDXUJ2TS7fj880tAXQ-173" style="edgeStyle=orthogonalEdgeStyle;rounded=0;orthogonalLoop=1;jettySize=auto;html=1;entryX=0.5;entryY=0;entryDx=0;entryDy=0;" edge="1" parent="1" source="23" target="vccDXUJ2TS7fj880tAXQ-172">
          <mxGeometry relative="1" as="geometry" />
        </mxCell>
        <mxCell id="23" value="&lt;div style=&quot;color: rgb(255, 255, 255); font-family: Arial, Helvetica, &amp;quot;MS UI Gothic&amp;quot;, &amp;quot;MS P Gothic&amp;quot;, &amp;quot;Microsoft Yahei UI&amp;quot;, sans-serif; font-size: 13px; background-color: rgb(33, 51, 62); margin-top: 13px; margin-left: -90px;&quot; align=&quot;center&quot;&gt;Asus&amp;nbsp;&lt;/div&gt;&lt;div style=&quot;color: rgb(255, 255, 255); font-family: Arial, Helvetica, &amp;quot;MS UI Gothic&amp;quot;, &amp;quot;MS P Gothic&amp;quot;, &amp;quot;Microsoft Yahei UI&amp;quot;, sans-serif; font-size: 13px; background-color: rgb(33, 51, 62); margin-top: 13px; margin-left: -90px;&quot; align=&quot;center&quot;&gt;RT-AX82U&lt;/div&gt;" style="image;html=1;image=img/lib/clip_art/networking/Bridge_128x128.png;shadow=0;strokeColor=#000000;fillColor=#FFFFFF;gradientColor=none;fontSize=18;fontColor=#F08705;fontStyle=0" parent="1" vertex="1">
          <mxGeometry x="190" y="70" width="80" height="80" as="geometry" />
        </mxCell>
        <mxCell id="49" value="Internet" style="ellipse;shape=cloud;whiteSpace=wrap;html=1;shadow=0;strokeColor=#23445D;fillColor=#BAC8D3;gradientColor=none;fontSize=18;fontColor=#23445D;fontStyle=0;gradientDirection=north;strokeWidth=2;" parent="1" vertex="1">
          <mxGeometry x="17" y="20" width="120" height="80" as="geometry" />
        </mxCell>
        <mxCell id="115" style="edgeStyle=orthogonalEdgeStyle;rounded=0;html=1;startArrow=none;startFill=0;endArrow=none;endFill=0;fontSize=18;fontColor=#F08705;strokeColor=#23445D;strokeWidth=2;curved=1;fontStyle=0" parent="1" source="23" target="49" edge="1">
          <mxGeometry relative="1" as="geometry" />
        </mxCell>
        <mxCell id="116" style="edgeStyle=orthogonalEdgeStyle;rounded=0;html=1;startArrow=none;startFill=0;endArrow=none;endFill=0;fontSize=18;fontColor=#F08705;strokeColor=#23445D;strokeWidth=2;curved=1;fontStyle=0" parent="1" source="84" edge="1">
          <mxGeometry relative="1" as="geometry">
            <mxPoint x="170" y="399" as="targetPoint" />
          </mxGeometry>
        </mxCell>
        <mxCell id="168" value="HomeLab V1.4" style="text;html=1;strokeColor=none;fillColor=none;align=center;verticalAlign=middle;whiteSpace=wrap;overflow=hidden;shadow=0;fontSize=36;fontColor=#AE4132;fontStyle=0" parent="1" vertex="1">
          <mxGeometry x="137" y="15" width="1380" height="45" as="geometry" />
        </mxCell>
        <mxCell id="171" style="edgeStyle=orthogonalEdgeStyle;rounded=0;jumpStyle=none;html=1;exitX=0;exitY=0.5;entryX=0;entryY=0.5;shadow=0;labelBackgroundColor=none;startArrow=none;startFill=0;endArrow=classic;endFill=1;endSize=6;jettySize=auto;orthogonalLoop=1;strokeColor=#23445D;strokeWidth=2;fillColor=#F08705;fontFamily=Helvetica;fontSize=14;fontColor=#F08705;align=left;fontStyle=0" parent="1" source="168" target="168" edge="1">
          <mxGeometry relative="1" as="geometry" />
        </mxCell>
        <mxCell id="vccDXUJ2TS7fj880tAXQ-177" style="edgeStyle=orthogonalEdgeStyle;rounded=0;orthogonalLoop=1;jettySize=auto;html=1;entryX=0.5;entryY=0;entryDx=0;entryDy=0;" edge="1" parent="1" source="vccDXUJ2TS7fj880tAXQ-172" target="vccDXUJ2TS7fj880tAXQ-176">
          <mxGeometry relative="1" as="geometry" />
        </mxCell>
        <mxCell id="vccDXUJ2TS7fj880tAXQ-178" style="edgeStyle=orthogonalEdgeStyle;rounded=0;orthogonalLoop=1;jettySize=auto;html=1;entryX=0.5;entryY=0;entryDx=0;entryDy=0;" edge="1" parent="1" source="vccDXUJ2TS7fj880tAXQ-172" target="vccDXUJ2TS7fj880tAXQ-175">
          <mxGeometry relative="1" as="geometry" />
        </mxCell>
        <mxCell id="vccDXUJ2TS7fj880tAXQ-172" value="" style="image;html=1;image=img/lib/clip_art/networking/Switch_128x128.png" vertex="1" parent="1">
          <mxGeometry x="800" y="280" width="80" height="80" as="geometry" />
        </mxCell>
        <mxCell id="vccDXUJ2TS7fj880tAXQ-175" value="Chappie" style="image;html=1;image=img/lib/clip_art/computers/Server_128x128.png" vertex="1" parent="1">
          <mxGeometry x="910" y="440" width="80" height="80" as="geometry" />
        </mxCell>
        <mxCell id="vccDXUJ2TS7fj880tAXQ-176" value="HAL9000" style="image;html=1;image=img/lib/clip_art/computers/Server_128x128.png" vertex="1" parent="1">
          <mxGeometry x="940" y="170" width="80" height="80" as="geometry" />
        </mxCell>
      </root>
    </mxGraphModel>
  </diagram>
</mxfile>
